<svg width="32" height="33" viewBox="0 0 32 33" fill="none" xmlns="http://www.w3.org/2000/svg">
<path fill-rule="evenodd" clip-rule="evenodd" d="M16 32.5C24.8368 32.5 32 25.3368 32 16.5C32 7.6632 24.8368 0.5 16 0.5C7.1632 0.5 0 7.6632 0 16.5C0 25.3368 7.1632 32.5 16 32.5ZM16 11.7C16.8487 11.7 17.6626 11.3629 18.2627 10.7627C18.8629 10.1626 19.2 9.34869 19.2 8.5C19.2 7.65131 18.8629 6.83737 18.2627 6.23726C17.6626 5.63714 16.8487 5.3 16 5.3C15.1513 5.3 14.3374 5.63714 13.7373 6.23726C13.1371 6.83737 12.8 7.65131 12.8 8.5C12.8 9.34869 13.1371 10.1626 13.7373 10.7627C14.3374 11.3629 15.1513 11.7 16 11.7ZM6.8688 12.196C6.57817 12.0832 6.25504 12.0879 5.96784 12.2092C5.68063 12.3304 5.45188 12.5587 5.33003 12.8456C5.20818 13.1326 5.20278 13.4557 5.31499 13.7466C5.4272 14.0374 5.6482 14.2732 5.9312 14.404L5.9344 14.4056L5.9376 14.4072L5.9536 14.4136L6.0048 14.436C6.30738 14.5622 6.61251 14.6822 6.92 14.796C7.528 15.028 8.3824 15.3368 9.3632 15.644C10.944 16.1432 12.9408 16.668 14.8 16.8408V18.8248C14.8 19.5128 14.6016 20.1896 14.2288 20.7704L10.1904 27.0504C10.1051 27.183 10.0467 27.3311 10.0187 27.4862C9.99058 27.6413 9.99334 27.8005 10.0268 27.9546C10.0602 28.1086 10.1236 28.2546 10.2135 28.3842C10.3033 28.5137 10.4178 28.6243 10.5504 28.7096C10.683 28.7949 10.8311 28.8533 10.9862 28.8813C11.1413 28.9094 11.3005 28.9067 11.4546 28.8732C11.6086 28.8398 11.7546 28.7764 11.8842 28.6865C12.0137 28.5967 12.1243 28.4822 12.2096 28.3496L16.0016 22.452L19.7904 28.3496C19.8757 28.4822 19.9863 28.5967 20.1158 28.6865C20.2454 28.7764 20.3914 28.8398 20.5454 28.8732C20.6995 28.9067 20.8587 28.9094 21.0138 28.8813C21.1689 28.8533 21.317 28.7949 21.4496 28.7096C21.5822 28.6243 21.6967 28.5137 21.7865 28.3842C21.8764 28.2546 21.9398 28.1086 21.9732 27.9546C22.0067 27.8005 22.0094 27.6413 21.9813 27.4862C21.9533 27.3311 21.8949 27.183 21.8096 27.0504L17.7712 20.7704C17.398 20.1895 17.1997 19.5136 17.2 18.8232V16.8408C19.0592 16.668 21.056 16.1432 22.6384 15.644C23.7729 15.286 24.8927 14.8831 25.9952 14.436L26.048 14.4136L26.064 14.4072L26.0672 14.4056C26.355 14.278 26.5812 14.0425 26.6969 13.7497C26.8127 13.4569 26.8087 13.1304 26.6859 12.8405C26.5631 12.5506 26.3313 12.3206 26.0405 12.2C25.7496 12.0794 25.4231 12.078 25.1312 12.196L25.12 12.2008L25.0768 12.2184L24.9008 12.2904C23.9202 12.6825 22.9254 13.038 21.9184 13.356C20.0336 13.948 17.7776 14.5 16 14.5C14.2224 14.5 11.968 13.948 10.0832 13.356C9.01584 13.0185 7.96222 12.639 6.9248 12.2184L6.88 12.2008L6.8688 12.196Z" fill="#5EA5F0"/>
</svg>
