<svg width="32" height="33" viewBox="0 0 32 33" fill="none" xmlns="http://www.w3.org/2000/svg">
<path d="M29.333 1.83401H19.9997C19.2363 1.83088 18.4962 2.09629 17.9087 2.58379C17.3213 3.07128 16.924 3.74982 16.7863 4.50068L15.5597 11.234C15.4749 11.7031 15.4942 12.1851 15.6164 12.646C15.7385 13.1068 15.9604 13.5351 16.2663 13.9007C16.574 14.2664 16.9576 14.5608 17.3904 14.7634C17.8233 14.9661 18.2951 15.072 18.773 15.074H22.6663L22.333 15.954C22.0869 16.6065 22.0014 17.3086 22.0838 18.0011C22.1661 18.6936 22.4139 19.3561 22.8061 19.9327C23.1984 20.5093 23.7236 20.9831 24.3374 21.314C24.9513 21.6449 25.6357 21.8233 26.333 21.834C26.5918 21.8361 26.8455 21.7628 27.0633 21.6231C27.2811 21.4834 27.4536 21.2834 27.5597 21.0473L30.5463 14.3007C30.6144 14.1537 30.655 13.9956 30.6663 13.834V3.16735C30.6663 2.81372 30.5259 2.47458 30.2758 2.22454C30.0258 1.97449 29.6866 1.83401 29.333 1.83401ZM27.9997 13.474L25.5597 18.9807C25.3215 18.8511 25.1163 18.6686 24.9597 18.4473C24.8028 18.2252 24.7036 17.9676 24.671 17.6976C24.6384 17.4276 24.6734 17.1537 24.773 16.9007L25.2797 15.5673C25.413 15.2215 25.4584 14.8481 25.4118 14.4804C25.3653 14.1127 25.2283 13.7624 25.013 13.4607C24.801 13.1602 24.5191 12.9157 24.1916 12.7485C23.8641 12.5812 23.5007 12.4962 23.133 12.5007H18.7463C18.6578 12.5009 18.5702 12.482 18.4896 12.4452C18.4091 12.4083 18.3374 12.3545 18.2797 12.2873C18.1762 12.1452 18.133 11.9678 18.1597 11.794L19.3863 5.12735C19.3806 5.04471 19.3924 4.96179 19.421 4.88406C19.4496 4.80632 19.4944 4.73552 19.5523 4.67632C19.6103 4.61712 19.6801 4.57086 19.7572 4.54059C19.8343 4.51032 19.9169 4.49671 19.9997 4.50068H27.9997V13.474ZM13.253 17.9007H9.39968L9.73301 17.0207C9.97554 16.3644 10.0561 15.6592 9.9677 14.9651C9.87934 14.271 9.62474 13.6085 9.22552 13.0339C8.82629 12.4593 8.29426 11.9895 7.67461 11.6646C7.05497 11.3396 6.36603 11.169 5.66634 11.1673C5.40759 11.1653 5.15384 11.2386 4.93603 11.3783C4.71822 11.518 4.54576 11.718 4.43967 11.954L1.45301 18.7007C1.3766 18.8683 1.33574 19.0499 1.33301 19.234V29.9007C1.33301 30.2543 1.47348 30.5934 1.72353 30.8435C1.97358 31.0935 2.31272 31.234 2.66634 31.234H11.9997C12.763 31.2371 13.5032 30.9717 14.0906 30.4842C14.6781 29.9967 15.0754 29.3182 15.213 28.5673L16.4397 21.9007C16.5245 21.4316 16.5051 20.9495 16.383 20.4887C16.2609 20.0279 16.039 19.5996 15.733 19.234C15.4439 18.8423 15.0715 18.5195 14.6427 18.2889C14.2139 18.0584 13.7392 17.9258 13.253 17.9007ZM12.613 28.0073C12.5901 28.151 12.5147 28.281 12.4014 28.3721C12.288 28.4633 12.1449 28.5091 11.9997 28.5007H3.99967V19.5273L6.43967 14.0207C6.67781 14.1503 6.88307 14.3327 7.03967 14.554C7.19659 14.7761 7.2958 15.0338 7.32838 15.3038C7.36097 15.5738 7.3259 15.8476 7.22634 16.1007L6.71967 17.434C6.58638 17.7798 6.54097 18.1533 6.58751 18.521C6.63405 18.8886 6.77109 19.239 6.98634 19.5407C7.19534 19.8461 7.47596 20.0958 7.80367 20.2677C8.13139 20.4397 8.49624 20.5289 8.86634 20.5273H13.253C13.3416 20.5271 13.4292 20.546 13.5097 20.5829C13.5903 20.6197 13.6619 20.6735 13.7197 20.7407C13.8232 20.8829 13.8663 21.0602 13.8397 21.234L12.613 28.0073Z" fill="#75D03D"/>
</svg>
