<!--
  - /*
  -  * Copyright (c) 2023 TechAxis.
  -  * All rights reserved.
  -  * Redistribution and use in source and binary forms, with or without modification, are not permitted.
  -  */
  -->

<svg width="12" height="14" viewBox="0 0 12 14" fill="none" xmlns="http://www.w3.org/2000/svg">
<path d="M1.33333 14.0003C0.966667 14.0003 0.652667 13.8699 0.391333 13.609C0.130444 13.3477 0 13.0337 0 12.667V3.33366C0 2.96699 0.130444 2.65299 0.391333 2.39166C0.652667 2.13077 0.966667 2.00033 1.33333 2.00033H4.13333C4.27778 1.60033 4.51956 1.2781 4.85867 1.03366C5.19733 0.789214 5.57778 0.666992 6 0.666992C6.42222 0.666992 6.80289 0.789214 7.142 1.03366C7.48067 1.2781 7.72222 1.60033 7.86667 2.00033H10.6667C11.0333 2.00033 11.3473 2.13077 11.6087 2.39166C11.8696 2.65299 12 2.96699 12 3.33366V12.667C12 13.0337 11.8696 13.3477 11.6087 13.609C11.3473 13.8699 11.0333 14.0003 10.6667 14.0003H1.33333ZM2.66667 11.3337H7.33333V10.0003H2.66667V11.3337ZM2.66667 8.66699H9.33333V7.33366H2.66667V8.66699ZM2.66667 6.00033H9.33333V4.66699H2.66667V6.00033ZM6 2.83366C6.14444 2.83366 6.264 2.78633 6.35867 2.69166C6.45289 2.59744 6.5 2.4781 6.5 2.33366C6.5 2.18921 6.45289 2.06966 6.35867 1.97499C6.264 1.88077 6.14444 1.83366 6 1.83366C5.85556 1.83366 5.73622 1.88077 5.642 1.97499C5.54733 2.06966 5.5 2.18921 5.5 2.33366C5.5 2.4781 5.54733 2.59744 5.642 2.69166C5.73622 2.78633 5.85556 2.83366 6 2.83366Z" fill="#147AA6"/>
</svg>
