<!--
  - /*
  -  * Copyright (c) 2023 TechAxis.
  -  * All rights reserved.
  -  * Redistribution and use in source and binary forms, with or without modification, are not permitted.
  -  */
  -->

<svg width="32" height="22" viewBox="0 0 30 23" fill="none" xmlns="http://www.w3.org/2000/svg">
<path fill-rule="evenodd" clip-rule="evenodd" d="M7.5 8.62453C8.24592 8.62453 8.96129 8.32162 9.48874 7.78243C10.0162 7.24325 10.3125 6.51196 10.3125 5.74943C10.3125 4.98691 10.0162 4.25562 9.48874 3.71643C8.96129 3.17725 8.24592 2.87434 7.5 2.87434C6.75408 2.87434 6.03871 3.17725 5.51126 3.71643C4.98382 4.25562 4.6875 4.98691 4.6875 5.74943C4.6875 6.51196 4.98382 7.24325 5.51126 7.78243C6.03871 8.32162 6.75408 8.62453 7.5 8.62453ZM13.125 5.74943C13.1272 7.26698 12.5406 8.72349 11.4938 9.79948C12.568 10.4897 13.4532 11.4474 14.0665 12.5829C14.6797 13.7184 15.0009 14.9944 15 16.2914V19.1665C15 20.1832 14.6049 21.1583 13.9017 21.8772C13.1984 22.5961 12.2446 23 11.25 23H3.75C2.75544 23 1.80161 22.5961 1.09835 21.8772C0.395088 21.1583 0 20.1832 0 19.1665V16.2914C0 13.5563 1.40062 11.1565 3.50625 9.79948C2.85555 9.12882 2.37649 8.30462 2.11141 7.39972C1.84634 6.49483 1.80342 5.53711 1.98645 4.61123C2.16947 3.68535 2.57281 2.81982 3.1608 2.09115C3.74879 1.36248 4.50333 0.793101 5.35772 0.433353C6.21211 0.0736041 7.14004 -0.0654379 8.05949 0.0285164C8.97894 0.122471 9.86159 0.446528 10.6294 0.972044C11.3972 1.49756 12.0266 2.20835 12.4619 3.04158C12.8971 3.87482 13.1249 4.80484 13.125 5.74943ZM2.8125 16.2914C2.8125 15.0206 3.30636 13.8018 4.18544 12.9031C5.06451 12.0045 6.2568 11.4996 7.5 11.4996C8.7432 11.4996 9.93549 12.0045 10.8146 12.9031C11.6936 13.8018 12.1875 15.0206 12.1875 16.2914V19.1665C12.1875 19.4207 12.0887 19.6645 11.9129 19.8442C11.7371 20.0239 11.4986 20.1249 11.25 20.1249H3.75C3.50136 20.1249 3.2629 20.0239 3.08709 19.8442C2.91127 19.6645 2.8125 19.4207 2.8125 19.1665V16.2914ZM24.375 15.3331C24.002 15.3331 23.6444 15.1816 23.3806 14.912C23.1169 14.6424 22.9688 14.2768 22.9688 13.8955V11.0204H20.1562C19.7833 11.0204 19.4256 10.869 19.1619 10.5994C18.8982 10.3298 18.75 9.96415 18.75 9.58289C18.75 9.20163 18.8982 8.83598 19.1619 8.56639C19.4256 8.2968 19.7833 8.14534 20.1562 8.14534H22.9688V5.27025C22.9688 4.88899 23.1169 4.52334 23.3806 4.25375C23.6444 3.98416 24.002 3.8327 24.375 3.8327C24.748 3.8327 25.1056 3.98416 25.3694 4.25375C25.6331 4.52334 25.7812 4.88899 25.7812 5.27025V8.14534H28.5938C28.9667 8.14534 29.3244 8.2968 29.5881 8.56639C29.8518 8.83598 30 9.20163 30 9.58289C30 9.96415 29.8518 10.3298 29.5881 10.5994C29.3244 10.869 28.9667 11.0204 28.5938 11.0204H25.7812V13.8955C25.7812 14.2768 25.6331 14.6424 25.3694 14.912C25.1056 15.1816 24.748 15.3331 24.375 15.3331Z" fill="#14142B"/>
</svg>
