<!--
  - /*
  -  * Copyright (c) 2023 TechAxis.
  -  * All rights reserved.
  -  * Redistribution and use in source and binary forms, with or without modification, are not permitted.
  -  */
  -->

<svg width="14" height="14" viewBox="0 0 14 14" fill="none" xmlns="http://www.w3.org/2000/svg">
<path d="M7.66536 7.11634V4.99967C7.66536 4.81079 7.60159 4.65234 7.47403 4.52434C7.34603 4.39679 7.18759 4.33301 6.9987 4.33301C6.80981 4.33301 6.65159 4.39679 6.52403 4.52434C6.39603 4.65234 6.33203 4.81079 6.33203 4.99967V6.99967C6.33203 7.2219 6.37092 7.42745 6.4487 7.61634C6.52648 7.80523 6.64314 7.97745 6.7987 8.13301L8.21536 9.54967C8.3487 9.68301 8.50714 9.74967 8.6907 9.74967C8.87381 9.74967 9.03203 9.68301 9.16537 9.54967C9.28759 9.41634 9.3487 9.25812 9.3487 9.07501C9.3487 8.89145 9.28759 8.73856 9.16537 8.61634L7.66536 7.11634ZM6.9987 1.66634C6.80981 1.66634 6.65159 1.73012 6.52403 1.85767C6.39603 1.98567 6.33203 2.14412 6.33203 2.33301C6.33203 2.5219 6.39603 2.68034 6.52403 2.80834C6.65159 2.9359 6.80981 2.99967 6.9987 2.99967C7.18759 2.99967 7.34603 2.9359 7.47403 2.80834C7.60159 2.68034 7.66536 2.5219 7.66536 2.33301C7.66536 2.14412 7.60159 1.98567 7.47403 1.85767C7.34603 1.73012 7.18759 1.66634 6.9987 1.66634ZM12.332 6.99967C12.332 6.81079 12.268 6.65234 12.14 6.52434C12.0125 6.39679 11.8543 6.33301 11.6654 6.33301C11.4765 6.33301 11.3183 6.39679 11.1907 6.52434C11.0627 6.65234 10.9987 6.81079 10.9987 6.99967C10.9987 7.18856 11.0627 7.34679 11.1907 7.47434C11.3183 7.60234 11.4765 7.66634 11.6654 7.66634C11.8543 7.66634 12.0125 7.60234 12.14 7.47434C12.268 7.34679 12.332 7.18856 12.332 6.99967ZM6.9987 10.9997C6.80981 10.9997 6.65159 11.0637 6.52403 11.1917C6.39603 11.3192 6.33203 11.4775 6.33203 11.6663C6.33203 11.8552 6.39603 12.0135 6.52403 12.141C6.65159 12.269 6.80981 12.333 6.9987 12.333C7.18759 12.333 7.34603 12.269 7.47403 12.141C7.60159 12.0135 7.66536 11.8552 7.66536 11.6663C7.66536 11.4775 7.60159 11.3192 7.47403 11.1917C7.34603 11.0637 7.18759 10.9997 6.9987 10.9997ZM2.9987 6.99967C2.9987 6.81079 2.93492 6.65234 2.80736 6.52434C2.67936 6.39679 2.52092 6.33301 2.33203 6.33301C2.14314 6.33301 1.9847 6.39679 1.8567 6.52434C1.72914 6.65234 1.66536 6.81079 1.66536 6.99967C1.66536 7.18856 1.72914 7.34679 1.8567 7.47434C1.9847 7.60234 2.14314 7.66634 2.33203 7.66634C2.52092 7.66634 2.67936 7.60234 2.80736 7.47434C2.93492 7.34679 2.9987 7.18856 2.9987 6.99967ZM6.9987 13.6663C6.07648 13.6663 5.20981 13.4912 4.3987 13.141C3.58759 12.7912 2.88203 12.3163 2.28203 11.7163C1.68203 11.1163 1.20714 10.4108 0.857365 9.59967C0.507142 8.78856 0.332031 7.9219 0.332031 6.99967C0.332031 6.07745 0.507142 5.21079 0.857365 4.39967C1.20714 3.58856 1.68203 2.88301 2.28203 2.28301C2.88203 1.68301 3.58759 1.2079 4.3987 0.857674C5.20981 0.507897 6.07648 0.333008 6.9987 0.333008C7.92092 0.333008 8.78759 0.507897 9.5987 0.857674C10.4098 1.2079 11.1154 1.68301 11.7154 2.28301C12.3154 2.88301 12.7903 3.58856 13.14 4.39967C13.4903 5.21079 13.6654 6.07745 13.6654 6.99967C13.6654 7.9219 13.4903 8.78856 13.14 9.59967C12.7903 10.4108 12.3154 11.1163 11.7154 11.7163C11.1154 12.3163 10.4098 12.7912 9.5987 13.141C8.78759 13.4912 7.92092 13.6663 6.9987 13.6663Z" fill="#147AA6"/>
</svg>
