<svg width="147" height="147" viewBox="0 0 147 147" fill="none" xmlns="http://www.w3.org/2000/svg">
<circle cx="73.5" cy="73.5" r="73.3125" fill="#FFF3F8"/>
<path fill-rule="evenodd" clip-rule="evenodd" d="M102.177 109.927C100.726 111.371 98.7581 112.182 96.7062 112.182H50.2873C48.2354 112.182 46.2676 111.371 44.8167 109.927C43.3659 108.483 42.5508 106.525 42.5508 104.483V42.8854C42.5508 40.8434 43.3659 38.8849 44.8167 37.441C46.2676 35.997 48.2354 35.1858 50.2873 35.1858H54.1555V62.1346L63.8261 56.3598L73.4968 62.1346V35.1858H96.7062C98.7581 35.1858 100.726 35.997 102.177 37.441C103.628 38.8849 104.443 40.8434 104.443 42.8854V104.483C104.443 106.525 103.628 108.483 102.177 109.927ZM96.8014 84.9203L98.9164 87.0352L90.5317 95.4198L98.9164 103.804L96.8014 105.919L88.4168 97.5348L80.0322 105.919L77.9173 103.804L86.3019 95.4198L77.9173 87.0352L80.0322 84.9203L88.4168 93.3049L96.8014 84.9203Z" fill="#C30052"/>
</svg>
