<!--
  - /*
  -  * Copyright (c) 2023 TechAxis.
  -  * All rights reserved.
  -  * Redistribution and use in source and binary forms, with or without modification, are not permitted.
  -  */
  -->

<svg width="27" height="27" viewBox="0 0 27 27" fill="none" xmlns="http://www.w3.org/2000/svg">
<path d="M4.375 4.58325C4.375 3.47868 5.27043 2.58325 6.375 2.58325H11.0987C12.7555 2.58325 14.0987 3.9264 14.0987 5.58325V8.74992C14.0987 10.1306 15.218 11.2499 16.5987 11.2499H19.625C21.2819 11.2499 22.625 12.5931 22.625 14.2499V22.4166C22.625 23.5212 21.7296 24.4166 20.625 24.4166H6.375C5.27043 24.4166 4.375 23.5212 4.375 22.4166V4.58325Z" stroke="#414141" stroke-width="2"/>
<path d="M4.375 4.58325C4.375 3.47868 5.27043 2.58325 6.375 2.58325H11.0132C13.3209 2.58325 15.5162 3.57978 17.0353 5.31694L20.6471 9.44708C21.9222 10.9052 22.625 12.7764 22.625 14.7134V22.4166C22.625 23.5212 21.7296 24.4166 20.625 24.4166H6.375C5.27043 24.4166 4.375 23.5212 4.375 22.4166V4.58325Z" stroke="#414141" stroke-width="2"/>
</svg>
