<svg width="32" height="33" viewBox="0 0 32 33" fill="none" xmlns="http://www.w3.org/2000/svg">
<path d="M29.315 13.4861C29.312 13.4469 29.3084 13.4078 29.3043 13.3688C29.1861 11.6877 28.436 10.1136 27.2047 8.96297C25.9734 7.81232 24.3522 7.17035 22.667 7.16608H9.33366C7.62477 7.15836 5.97896 7.81112 4.73992 8.98804C3.50089 10.165 2.76442 11.7751 2.68433 13.4821C2.67099 13.5874 2.66699 13.6967 2.66699 13.8194V22.4994C2.66699 23.7327 3.16433 24.9367 4.02966 25.8007C4.90807 26.6734 6.09545 27.1641 7.33366 27.1661C9.73366 27.1661 10.6723 25.8327 12.0003 23.1661C12.195 22.7767 13.323 20.4994 16.0003 20.4994C18.6617 20.4994 19.8043 22.7754 20.0003 23.1661C21.339 25.8327 22.267 27.1661 24.667 27.1661C25.9003 27.1661 27.1043 26.6687 27.9683 25.8034C28.841 24.925 29.3317 23.7376 29.3337 22.4994V13.8327C29.3337 13.7061 29.3283 13.5927 29.315 13.4861ZM9.33366 16.5407C8.97854 16.5488 8.6254 16.4858 8.29496 16.3555C7.96452 16.2251 7.66345 16.0301 7.40943 15.7818C7.1554 15.5335 6.95354 15.237 6.81569 14.9096C6.67785 14.5823 6.60679 14.2306 6.6067 13.8754C6.60662 13.5202 6.67749 13.1686 6.81518 12.8411C6.95286 12.5137 7.15457 12.2171 7.40847 11.9686C7.66238 11.7202 7.96335 11.5251 8.29372 11.3946C8.62409 11.2641 8.9772 11.2009 9.33233 11.2087C10.0291 11.2242 10.6921 11.5117 11.1795 12.0099C11.6669 12.508 11.9399 13.1772 11.94 13.8741C11.9402 14.571 11.6675 15.2403 11.1804 15.7387C10.6933 16.2371 10.0304 16.525 9.33366 16.5407ZM22.667 9.87408C23.0206 9.87408 23.3598 10.0146 23.6098 10.2646C23.8598 10.5147 24.0003 10.8538 24.0003 11.2074C24.0003 11.561 23.8598 11.9002 23.6098 12.1502C23.3598 12.4003 23.0206 12.5408 22.667 12.5408C22.3134 12.5408 21.9742 12.4003 21.7242 12.1502C21.4741 11.9002 21.3337 11.561 21.3337 11.2074C21.3337 10.8538 21.4741 10.5147 21.7242 10.2646C21.9742 10.0146 22.3134 9.87408 22.667 9.87408ZM20.0003 15.2074C19.6467 15.2074 19.3076 15.0669 19.0575 14.8169C18.8075 14.5668 18.667 14.2277 18.667 13.8741C18.667 13.5205 18.8075 13.1813 19.0575 12.9313C19.3076 12.6812 19.6467 12.5408 20.0003 12.5408C20.3539 12.5408 20.6931 12.6812 20.9431 12.9313C21.1932 13.1813 21.3337 13.5205 21.3337 13.8741C21.3337 14.2277 21.1932 14.5668 20.9431 14.8169C20.6931 15.0669 20.3539 15.2074 20.0003 15.2074ZM22.667 17.8741C22.3134 17.8741 21.9742 17.7336 21.7242 17.4836C21.4741 17.2335 21.3337 16.8944 21.3337 16.5407C21.3337 16.1871 21.4741 15.848 21.7242 15.5979C21.9742 15.3479 22.3134 15.2074 22.667 15.2074C23.0206 15.2074 23.3598 15.3479 23.6098 15.5979C23.8598 15.848 24.0003 16.1871 24.0003 16.5407C24.0003 16.8944 23.8598 17.2335 23.6098 17.4836C23.3598 17.7336 23.0206 17.8741 22.667 17.8741ZM25.3337 15.2074C24.98 15.2074 24.6409 15.0669 24.3908 14.8169C24.1408 14.5668 24.0003 14.2277 24.0003 13.8741C24.0003 13.5205 24.1408 13.1813 24.3908 12.9313C24.6409 12.6812 24.98 12.5408 25.3337 12.5408C25.6873 12.5408 26.0264 12.6812 26.2765 12.9313C26.5265 13.1813 26.667 13.5205 26.667 13.8741C26.667 14.2277 26.5265 14.5668 26.2765 14.8169C26.0264 15.0669 25.6873 15.2074 25.3337 15.2074Z" fill="#FF9E2C"/>
</svg>
