<!--
  - /*
  -  * Copyright (c) 2023 TechAxis.
  -  * All rights reserved.
  -  * Redistribution and use in source and binary forms, with or without modification, are not permitted.
  -  */
  -->

<svg width="24" height="24" viewBox="0 0 24 24" fill="none" xmlns="http://www.w3.org/2000/svg">
<path d="M2.60031 10.5898L8.38031 4.79982L10.0703 6.49982C9.83031 7.34982 10.2203 8.27982 11.0003 8.72982V14.2698C10.4003 14.6098 10.0003 15.2598 10.0003 15.9998C10.0003 16.5303 10.211 17.039 10.5861 17.414C10.9612 17.7891 11.4699 17.9998 12.0003 17.9998C12.5307 17.9998 13.0395 17.7891 13.4145 17.414C13.7896 17.039 14.0003 16.5303 14.0003 15.9998C14.0003 15.2598 13.6003 14.6098 13.0003 14.2698V9.40982L15.0703 11.4998C15.0003 11.6498 15.0003 11.8198 15.0003 11.9998C15.0003 12.5303 15.211 13.039 15.5861 13.414C15.9612 13.7891 16.4699 13.9998 17.0003 13.9998C17.5307 13.9998 18.0395 13.7891 18.4145 13.414C18.7896 13.039 19.0003 12.5303 19.0003 11.9998C19.0003 11.4694 18.7896 10.9607 18.4145 10.5856C18.0395 10.2105 17.5307 9.99982 17.0003 9.99982C16.8203 9.99982 16.6503 9.99982 16.5003 10.0698L13.9303 7.49982C14.0545 7.03666 14.0063 6.54417 13.7948 6.11382C13.5833 5.68346 13.2229 5.34448 12.7803 5.15982C12.3503 4.99982 11.9003 4.95982 11.5003 5.06982L9.80031 3.37982L10.5903 2.59982C11.3703 1.80982 12.6303 1.80982 13.4103 2.59982L21.4003 10.5898C22.1903 11.3698 22.1903 12.6298 21.4003 13.4098L13.4103 21.3998C12.6303 22.1898 11.3703 22.1898 10.5903 21.3998L2.60031 13.4098C1.81031 12.6298 1.81031 11.3698 2.60031 10.5898Z" fill="#414141"/>
</svg>
