<!--
  - /*
  -  * Copyright (c) 2023 TechAxis.
  -  * All rights reserved.
  -  * Redistribution and use in source and binary forms, with or without modification, are not permitted.
  -  */
  -->

<svg width="34" height="26" viewBox="0 0 34 26" fill="none" xmlns="http://www.w3.org/2000/svg">
<path d="M17 0.5C18.315 0.5 19.5762 1.13577 20.5061 2.26746C21.4359 3.39914 21.9583 4.93404 21.9583 6.53448C21.9583 8.13493 21.4359 9.66982 20.5061 10.8015C19.5762 11.9332 18.315 12.569 17 12.569C15.685 12.569 14.4238 11.9332 13.4939 10.8015C12.5641 9.66982 12.0417 8.13493 12.0417 6.53448C12.0417 4.93404 12.5641 3.39914 13.4939 2.26746C14.4238 1.13577 15.685 0.5 17 0.5ZM7.08333 4.81034C7.87667 4.81034 8.61333 5.06897 9.25083 5.53448C9.03833 8 9.63333 10.4483 10.8517 12.3621C10.1433 14.0172 8.72667 15.1552 7.08333 15.1552C5.95616 15.1552 4.87516 14.6102 4.07813 13.6402C3.2811 12.6702 2.83333 11.3546 2.83333 9.98276C2.83333 8.61095 3.2811 7.29532 4.07813 6.32531C4.87516 5.35529 5.95616 4.81034 7.08333 4.81034ZM26.9167 4.81034C28.0438 4.81034 29.1248 5.35529 29.9219 6.32531C30.7189 7.29532 31.1667 8.61095 31.1667 9.98276C31.1667 11.3546 30.7189 12.6702 29.9219 13.6402C29.1248 14.6102 28.0438 15.1552 26.9167 15.1552C25.2733 15.1552 23.8567 14.0172 23.1483 12.3621C24.3835 10.4214 24.9568 7.9762 24.7492 5.53448C25.3867 5.06897 26.1233 4.81034 26.9167 4.81034ZM7.79167 22.4828C7.79167 18.9138 11.9142 16.0172 17 16.0172C22.0858 16.0172 26.2083 18.9138 26.2083 22.4828V25.5H7.79167V22.4828ZM0 25.5V22.9138C0 20.5172 2.6775 18.5 6.30417 17.9138C5.46833 19.0862 4.95833 20.7069 4.95833 22.4828V25.5H0ZM34 25.5H29.0417V22.4828C29.0417 20.7069 28.5317 19.0862 27.6958 17.9138C31.3225 18.5 34 20.5172 34 22.9138V25.5Z" fill="#147AA6"/>
</svg>
