<svg width="40" height="40" viewBox="0 0 40 40" fill="none" xmlns="http://www.w3.org/2000/svg">
<path d="M19.9997 14.584C18.5631 14.584 17.1853 15.1547 16.1695 16.1705C15.1537 17.1863 14.583 18.5641 14.583 20.0007C14.583 21.4372 15.1537 22.815 16.1695 23.8308C17.1853 24.8466 18.5631 25.4173 19.9997 25.4173C21.4363 25.4173 22.814 24.8466 23.8298 23.8308C24.8457 22.815 25.4163 21.4372 25.4163 20.0007C25.4163 18.5641 24.8457 17.1863 23.8298 16.1705C22.814 15.1547 21.4363 14.584 19.9997 14.584Z" fill="white"/>
<path fill-rule="evenodd" clip-rule="evenodd" d="M11.2834 5.13592C17.0767 4.49376 22.9233 4.49376 28.7167 5.13592C31.8817 5.48925 34.4334 7.98092 34.805 11.1576C35.492 17.032 35.492 22.9665 34.805 28.8409C34.4334 32.0176 31.8817 34.5093 28.7184 34.8643C22.9244 35.5066 17.0773 35.5066 11.2834 34.8643C8.11836 34.5093 5.56669 32.0176 5.19503 28.8426C4.50791 22.9676 4.50791 17.0326 5.19503 11.1576C5.56669 7.98092 8.11836 5.48925 11.2834 5.13592ZM28.3334 9.99925C27.8913 9.99925 27.4674 10.1748 27.1548 10.4874C26.8423 10.8 26.6667 11.2239 26.6667 11.6659C26.6667 12.1079 26.8423 12.5319 27.1548 12.8444C27.4674 13.157 27.8913 13.3326 28.3334 13.3326C28.7754 13.3326 29.1993 13.157 29.5119 12.8444C29.8244 12.5319 30 12.1079 30 11.6659C30 11.2239 29.8244 10.8 29.5119 10.4874C29.1993 10.1748 28.7754 9.99925 28.3334 9.99925ZM12.0834 19.9993C12.0834 17.8996 12.9174 15.886 14.4021 14.4013C15.8868 12.9167 17.9004 12.0826 20 12.0826C22.0997 12.0826 24.1133 12.9167 25.598 14.4013C27.0826 15.886 27.9167 17.8996 27.9167 19.9993C27.9167 22.0989 27.0826 24.1125 25.598 25.5972C24.1133 27.0818 22.0997 27.9159 20 27.9159C17.9004 27.9159 15.8868 27.0818 14.4021 25.5972C12.9174 24.1125 12.0834 22.0989 12.0834 19.9993Z" fill="white"/>
</svg>
