<!--
  - /*
  -  * Copyright (c) 2023 TechAxis.
  -  * All rights reserved.
  -  * Redistribution and use in source and binary forms, with or without modification, are not permitted.
  -  */
  -->

<svg width="16" height="16" viewBox="0 0 16 16" fill="none" xmlns="http://www.w3.org/2000/svg">
<path d="M12 7.33301C12.2267 7.33301 12.4467 7.35301 12.6667 7.38634V1.33301H2V14.6663H8.17333C7.685 13.9671 7.3978 13.1473 7.34297 12.2961C7.28813 11.445 7.46778 10.5951 7.86235 9.83898C8.25692 9.08284 8.8513 8.44939 9.58083 8.00754C10.3104 7.5657 11.1471 7.3324 12 7.33301ZM4.66667 7.33301V2.66634H8V7.33301L6.33333 6.33301L4.66667 7.33301Z" fill="#147AA6"/>
<path d="M12.0013 8.66699C10.1613 8.66699 8.66797 10.1603 8.66797 12.0003C8.66797 13.8403 10.1613 15.3337 12.0013 15.3337C13.8413 15.3337 15.3346 13.8403 15.3346 12.0003C15.3346 10.1603 13.8413 8.66699 12.0013 8.66699ZM11.168 13.667V10.3337L13.8346 12.0003L11.168 13.667Z" fill="#147AA6"/>
</svg>
