<svg width="32" height="33" viewBox="0 0 32 33" fill="none" xmlns="http://www.w3.org/2000/svg">
<path d="M8.72501 7.16689C8.61819 7.0579 8.49094 6.97103 8.35053 6.91123C8.21013 6.85144 8.05932 6.8199 7.90672 6.81841C7.75412 6.81693 7.60272 6.84553 7.46118 6.90257C7.31964 6.95962 7.19073 7.044 7.08181 7.15089C5.84972 8.37581 4.87239 9.83258 4.20617 11.4371C3.53996 13.0417 3.19806 14.7623 3.20021 16.4997C3.19821 18.3037 3.56701 20.0889 4.28373 21.7445C5.00045 23.4 6.04978 24.8906 7.36661 26.1237C7.58824 26.3286 7.88099 26.439 8.18272 26.4315C8.48445 26.4241 8.77138 26.2993 8.9826 26.0837C9.4882 25.5781 9.4258 24.7733 8.9394 24.3077C7.8826 23.3005 7.04163 22.089 6.46759 20.7468C5.89356 19.4045 5.59845 17.9595 5.60021 16.4997C5.60021 13.5461 6.7858 10.8677 8.709 8.91889C9.173 8.44689 9.221 7.66289 8.72501 7.16689ZM11.5426 9.98769C11.3319 9.77087 11.0438 9.64642 10.7415 9.64162C10.4392 9.63682 10.1473 9.75206 9.9298 9.96209C9.06412 10.8164 8.37699 11.8344 7.90838 12.9567C7.43977 14.0791 7.19904 15.2834 7.2002 16.4997C7.19833 17.7857 7.46702 19.0577 7.98883 20.2331C8.51064 21.4085 9.2739 22.4609 10.229 23.3221C10.4486 23.5161 10.7344 23.6182 11.0272 23.6072C11.3201 23.5961 11.5974 23.4729 11.8018 23.2629C12.3266 22.7381 12.229 21.9125 11.7362 21.4485C11.0607 20.8135 10.5226 20.0467 10.1552 19.1955C9.78783 18.3443 9.59893 17.4268 9.6002 16.4997C9.6002 14.6597 10.3314 12.9893 11.5202 11.7637C11.9778 11.2933 12.053 10.4965 11.5426 9.98769ZM20.4578 9.98769C20.6685 9.77087 20.9566 9.64642 21.2589 9.64162C21.5612 9.63682 21.8531 9.75206 22.0706 9.96209C22.9363 10.8164 23.6234 11.8344 24.092 12.9567C24.5606 14.0791 24.8014 15.2834 24.8002 16.4997C24.8021 17.7857 24.5334 19.0577 24.0116 20.2331C23.4898 21.4085 22.7265 22.4609 21.7714 23.3221C21.5518 23.5161 21.266 23.6182 20.9732 23.6072C20.6803 23.5961 20.403 23.4729 20.1986 23.2629C19.6738 22.7381 19.7714 21.9125 20.2642 21.4485C20.9397 20.8135 21.4778 20.0467 21.8452 19.1955C22.2126 18.3443 22.4015 17.4268 22.4002 16.4997C22.4002 14.6597 21.669 12.9893 20.4802 11.7637C20.0226 11.2933 19.9474 10.4965 20.4578 9.98769ZM23.2754 7.16849C23.3822 7.0595 23.5095 6.97263 23.6499 6.91283C23.7903 6.85304 23.9411 6.8215 24.0937 6.82001C24.2463 6.81853 24.3977 6.84713 24.5392 6.90417C24.6808 6.96122 24.8097 7.0456 24.9186 7.15249C26.1505 8.37722 27.1277 9.83373 27.7939 11.438C28.4601 13.0423 28.8021 14.7626 28.8002 16.4997C28.8022 18.3037 28.4334 20.0889 27.7167 21.7445C27 23.4 25.9506 24.8906 24.6338 26.1237C24.4122 26.3286 24.1194 26.439 23.8177 26.4315C23.516 26.4241 23.229 26.2993 23.0178 26.0837C22.5122 25.5781 22.5746 24.7733 23.0626 24.3077C24.1191 23.3004 24.9598 22.0888 25.5336 20.7466C26.1073 19.4043 26.4022 17.9594 26.4002 16.4997C26.4002 13.5461 25.2146 10.8677 23.2914 8.91889C22.8274 8.44689 22.7794 7.66289 23.2754 7.16689V7.16849ZM16.0002 14.0997C15.3637 14.0997 14.7532 14.3525 14.3031 14.8026C13.8531 15.2527 13.6002 15.8632 13.6002 16.4997C13.6002 17.1362 13.8531 17.7467 14.3031 18.1967C14.7532 18.6468 15.3637 18.8997 16.0002 18.8997C16.6367 18.8997 17.2472 18.6468 17.6973 18.1967C18.1473 17.7467 18.4002 17.1362 18.4002 16.4997C18.4002 15.8632 18.1473 15.2527 17.6973 14.8026C17.2472 14.3525 16.6367 14.0997 16.0002 14.0997Z" fill="#CB3A3A"/>
</svg>
