<!--
  - /*
  -  * Copyright (c) 2023 TechAxis.
  -  * All rights reserved.
  -  * Redistribution and use in source and binary forms, with or without modification, are not permitted.
  -  */
  -->

<svg width="65" height="84" viewBox="0 0 65 84" fill="none" xmlns="http://www.w3.org/2000/svg">
<path d="M26.1525 52.3431C36.3806 52.3431 44.6722 44.0515 44.6722 33.8234C44.6722 23.5953 36.3806 15.3037 26.1525 15.3037C15.9244 15.3037 7.63281 23.5953 7.63281 33.8234C7.63281 44.0515 15.9244 52.3431 26.1525 52.3431Z" fill="white"/>
<path d="M40.3158 3.50647C40.2395 3.30209 40.2542 0.913844 40.3332 0.760256C40.368 0.692016 40.5103 0.534075 40.6885 0.365419C40.9299 0.136091 41.0129 0.075619 41.1328 0.0378162C41.3501 -0.0308584 42.8528 -0.0018282 43.9005 0.0912224C48.2105 0.474005 52.2798 2.02707 55.7061 4.59683C56.7558 5.38389 57.023 5.61968 58.2007 6.79736C59.3783 7.97501 59.614 8.24234 60.4012 9.29174C62.971 12.7182 64.524 16.7875 64.9067 21.0973C64.9998 22.1453 65.0289 23.6477 64.9603 23.8654C64.9225 23.9852 64.8615 24.0679 64.6325 24.3097C64.4638 24.4875 64.3054 24.6295 64.2377 24.6649C64.074 24.749 61.6926 24.7584 61.482 24.6757C61.2801 24.5966 61.0521 24.3663 60.9764 24.1644C60.9396 24.0666 60.9158 23.7324 60.9105 23.2382C60.8867 21.1365 60.5927 19.3357 59.9542 17.3864C59.1643 14.9746 58.0259 12.9421 56.3052 10.8711C55.6626 10.098 54.3618 8.85719 53.4437 8.14216C51.6901 6.7765 49.7427 5.74186 47.6119 5.044C45.6624 4.40557 43.8617 4.11132 41.7599 4.08768C41.2657 4.08212 40.9316 4.05828 40.8338 4.02161C40.6356 3.94708 40.3895 3.70201 40.3158 3.50647Z" fill="white"/>
<path d="M0 83.2109V8.49023H29.4795C35.1228 8.49023 39.9388 9.49963 43.9276 11.5184C47.941 13.513 50.9937 16.3466 53.0854 20.0196C55.2015 23.6679 56.2596 27.9608 56.2596 32.8986C56.2596 37.8606 55.1891 42.129 53.0489 45.7047C50.9083 49.256 47.807 51.9802 43.7452 53.8774C39.7077 55.7746 34.8185 56.7231 29.0784 56.7231H9.34021V44.0262H26.5243C29.5405 44.0262 32.0457 43.613 34.0403 42.786C36.0349 41.9589 37.5186 40.7184 38.4913 39.0643C39.4887 37.4105 39.9873 35.3553 39.9873 32.8986C39.9873 30.4175 39.4887 28.3258 38.4913 26.6232C37.5186 24.9205 36.0225 23.6314 34.0038 22.7558C32.0092 21.8558 29.4919 21.4058 26.4516 21.4058H15.7978V83.2109H0ZM40.3523 49.2071L58.9229 83.2109H41.483L23.3139 49.2071H40.3523Z" fill="white"/>
<path d="M40.0028 31.4858C41.9298 32.4495 41.9298 35.1994 40.0028 36.1628L16.3555 47.9865V19.6621L40.0028 31.4858Z" fill="#1EA7DC"/>
</svg>
