<!--
  - /*
  -  * Copyright (c) 2023 TechAxis.
  -  * All rights reserved.
  -  * Redistribution and use in source and binary forms, with or without modification, are not permitted.
  -  */
  -->

<svg width="364" height="364" viewBox="0 0 364 364" fill="none" xmlns="http://www.w3.org/2000/svg">
<rect width="364.001" height="364.001" rx="38.29" fill="url(#paint0_linear_1748_7231)"/>
<circle cx="172.439" cy="146.408" r="55.3099" fill="white"/>
<path d="M214.721 55.864C214.492 55.2537 214.537 48.1211 214.772 47.6624C214.877 47.4586 215.301 46.9868 215.833 46.4832C216.554 45.7983 216.802 45.6177 217.16 45.5048C217.81 45.2997 222.297 45.3863 225.426 45.6643C238.298 46.8075 250.451 51.4458 260.685 59.1205C263.819 61.4711 264.617 62.1753 268.134 65.6925C271.652 69.2096 272.356 70.008 274.706 73.1421C282.381 83.3754 287.019 95.5285 288.162 108.4C288.44 111.53 288.527 116.017 288.322 116.667C288.209 117.025 288.027 117.272 287.344 117.994C286.839 118.525 286.366 118.949 286.164 119.055C285.675 119.306 278.563 119.334 277.934 119.087C277.331 118.851 276.651 118.163 276.424 117.56C276.315 117.268 276.244 116.27 276.227 114.794C276.157 108.517 275.278 103.139 273.371 97.3172C271.012 90.1142 267.612 84.044 262.473 77.859C260.554 75.5499 256.669 71.8443 253.927 69.7088C248.69 65.6302 242.874 62.5402 236.51 60.456C230.688 58.5493 225.311 57.6705 219.033 57.5999C217.557 57.5833 216.559 57.5121 216.267 57.4026C215.675 57.18 214.94 56.4481 214.721 55.864Z" fill="white"/>
<path d="M94.3242 293.909V70.752H182.367C199.22 70.752 213.603 73.7666 225.516 79.7959C237.502 85.7526 246.619 94.2154 252.866 105.184C259.186 116.081 262.346 128.902 262.346 143.649C262.346 158.468 259.15 171.216 252.757 181.895C246.365 192.5 237.103 200.636 224.971 206.303C212.913 211.969 198.312 214.802 181.168 214.802H122.219V176.882H173.541C182.548 176.882 190.03 175.647 195.987 173.178C201.944 170.708 206.375 167.003 209.281 162.063C212.259 157.124 213.748 150.985 213.748 143.649C213.748 136.239 212.259 129.992 209.281 124.907C206.375 119.822 201.907 115.972 195.878 113.357C189.922 110.669 182.403 109.325 173.323 109.325H141.505V293.909H94.3242ZM214.838 192.355L270.3 293.909H218.216L163.952 192.355H214.838Z" fill="white"/>
<path d="M213.778 139.425C219.533 142.303 219.533 150.516 213.778 153.393L143.155 188.705L143.155 104.113L213.778 139.425Z" fill="#34C4B8"/>
<defs>
<linearGradient id="paint0_linear_1748_7231" x1="19.5211" y1="-3.54945e-06" x2="244.014" y2="393.676" gradientUnits="userSpaceOnUse">
<stop stop-color="#1EA7DC"/>
<stop offset="1" stop-color="#34C4B8"/>
</linearGradient>
</defs>
</svg>
