<!--
  - /*
  -  * Copyright (c) 2023 TechAxis.
  -  * All rights reserved.
  -  * Redistribution and use in source and binary forms, with or without modification, are not permitted.
  -  */
  -->

<svg width="1519" height="365" viewBox="0 0 1519 365" fill="none" xmlns="http://www.w3.org/2000/svg">
<rect x="0.675781" y="0.183105" width="364.001" height="364.001" rx="59.2881" fill="url(#paint0_linear_1724_8083)"/>
<circle cx="173.115" cy="146.592" r="55.3099" fill="white"/>
<path d="M457.443 266.761C454.292 266.761 452.717 265.028 452.717 261.562V136.418C452.717 132.952 454.292 131.219 457.443 131.219H503.096C521.307 131.219 534.477 134.622 542.605 141.427C550.797 148.233 554.893 157.212 554.893 168.366C554.893 178.196 551.585 186.45 544.968 193.13C538.415 199.809 529.057 203.653 516.896 204.661V204.85C523.323 209.639 527.577 213.294 529.656 215.815C531.735 218.272 534.067 221.612 536.65 225.834L558.012 260.522C560.596 264.681 560.028 266.761 556.311 266.761H545.535C542.574 266.761 540.368 265.532 538.919 263.074L519.259 229.331C516.423 224.479 512.359 219.721 507.066 215.058C501.773 210.395 495.188 208.064 487.311 208.064H470.865V261.562C470.865 265.028 469.289 266.761 466.139 266.761H457.443ZM470.865 192.563H498.181C510.468 192.563 519.92 190.956 526.537 187.742C533.153 184.465 536.461 177.628 536.461 167.231C536.461 159.292 533.437 153.904 527.388 151.068C521.338 148.17 513.115 146.72 502.718 146.72H470.865V192.563ZM576.443 217.138C576.443 201.511 580.35 189.065 588.164 179.802C595.977 170.539 607.162 165.908 621.718 165.908C633.817 165.908 643.836 170.161 651.776 178.668C659.778 187.112 663.78 200.628 663.78 219.217C663.78 222.053 662.488 223.471 659.904 223.471H594.024C595.095 235.632 598.372 244.107 603.854 248.896C609.336 253.622 615.543 255.985 622.475 255.985C629.784 255.985 635.392 254.757 639.299 252.299C643.206 249.842 646.073 247.416 647.9 245.021C649.917 242.375 651.87 241.871 653.761 243.509L659.337 248.329C660.787 249.59 660.787 251.322 659.337 253.528C658.14 255.355 654.706 258.285 649.035 262.318C643.426 266.351 634.573 268.368 622.475 268.368C606.721 268.368 595.095 263.736 587.597 254.473C580.161 245.21 576.443 232.765 576.443 217.138ZM593.646 211.183H647.05C646.798 202.361 644.529 194.642 640.244 188.026C635.959 181.346 629.658 178.007 621.34 178.007C614.031 178.007 607.824 180.464 602.72 185.379C597.616 190.231 594.591 198.832 593.646 211.183ZM689.867 266.761C687.032 266.761 685.614 265.343 685.614 262.507V171.768C685.614 168.933 687.032 167.515 689.867 167.515H697.807C700.643 167.515 702.06 168.933 702.06 171.768V179.33H702.438C706.534 174.793 710.977 171.422 715.766 169.216C720.555 167.011 725.155 165.908 729.566 165.908C737.694 165.908 743.933 167.956 748.281 172.052C752.691 176.085 755.527 180.149 756.787 184.245H757.165C760.631 179.078 765.011 174.73 770.304 171.201C775.597 167.672 781.236 165.908 787.223 165.908C797.242 165.908 804.803 169.153 809.908 175.644C815.012 182.071 817.564 190.893 817.564 202.109V262.507C817.564 265.343 816.146 266.761 813.31 266.761H805.182C802.346 266.761 800.928 265.343 800.928 262.507V207.591C800.928 195.241 799.384 187.27 796.297 183.678C793.209 180.023 788.451 178.196 782.024 178.196C775.723 178.196 770.461 180.905 766.239 186.324C762.017 191.68 759.906 199.778 759.906 210.616V262.507C759.906 265.343 758.489 266.761 755.653 266.761H747.524C744.689 266.761 743.271 265.343 743.271 262.507V207.591C743.271 195.241 741.727 187.27 738.64 183.678C735.552 180.023 730.794 178.196 724.367 178.196C718.066 178.196 712.804 180.653 708.582 185.568C704.36 190.42 702.249 198.769 702.249 210.616V262.507C702.249 265.343 700.832 266.761 697.996 266.761H689.867ZM838.831 217.138C838.831 202.33 842.737 190.105 850.551 180.464C858.428 170.76 869.928 165.908 885.051 165.908C900.174 165.908 911.642 170.76 919.456 180.464C927.333 190.105 931.271 202.33 931.271 217.138C931.271 231.946 927.333 244.202 919.456 253.906C911.642 263.547 900.174 268.368 885.051 268.368C869.928 268.368 858.428 263.547 850.551 253.906C842.737 244.202 838.831 231.946 838.831 217.138ZM856.411 217.138C856.411 230.371 859.026 240.169 864.256 246.533C869.487 252.898 876.418 256.08 885.051 256.08C893.684 256.08 900.615 252.898 905.845 246.533C911.075 240.169 913.69 230.371 913.69 217.138C913.69 203.905 911.075 194.106 905.845 187.742C900.615 181.378 893.684 178.196 885.051 178.196C876.418 178.196 869.487 181.378 864.256 187.742C859.026 194.106 856.411 203.905 856.411 217.138ZM947.907 179.991C945.071 179.991 943.653 178.889 943.653 176.683V170.823C943.653 168.618 945.071 167.515 947.907 167.515H959.06V159.008C959.06 157.748 959.375 156.551 960.005 155.416L966.621 143.412C967.819 141.207 968.795 140.104 969.552 140.104H972.86C974.75 140.104 975.695 141.207 975.695 143.412V167.515H995.828C998.664 167.515 1000.08 168.618 1000.08 170.823V176.683C1000.08 178.889 998.664 179.991 995.828 179.991H975.695V240.201C975.695 246.817 976.672 251.133 978.626 253.15C980.642 255.103 983.036 256.08 985.809 256.08C987.951 256.08 990.504 255.45 993.465 254.19C996.49 252.929 998.569 251.858 999.703 250.976C1000.84 250.094 1001.72 250.377 1002.35 251.827L1005.47 259.105C1005.97 260.365 1005.6 261.373 1004.33 262.129C1001.88 263.579 998.286 264.996 993.56 266.383C988.834 267.706 984.108 268.368 979.382 268.368C972.828 268.368 967.787 266.005 964.258 261.279C960.793 256.553 959.06 249.873 959.06 241.24V179.991H947.907ZM1018.99 217.138C1018.99 201.511 1022.89 189.065 1030.71 179.802C1038.52 170.539 1049.7 165.908 1064.26 165.908C1076.36 165.908 1086.38 170.161 1094.32 178.668C1102.32 187.112 1106.32 200.628 1106.32 219.217C1106.32 222.053 1105.03 223.471 1102.45 223.471H1036.57C1037.64 235.632 1040.91 244.107 1046.4 248.896C1051.88 253.622 1058.09 255.985 1065.02 255.985C1072.33 255.985 1077.93 254.757 1081.84 252.299C1085.75 249.842 1088.62 247.416 1090.44 245.021C1092.46 242.375 1094.41 241.871 1096.3 243.509L1101.88 248.329C1103.33 249.59 1103.33 251.322 1101.88 253.528C1100.68 255.355 1097.25 258.285 1091.58 262.318C1085.97 266.351 1077.12 268.368 1065.02 268.368C1049.26 268.368 1037.64 263.736 1030.14 254.473C1022.7 245.21 1018.99 232.765 1018.99 217.138ZM1036.19 211.183H1089.59C1089.34 202.361 1087.07 194.642 1082.79 188.026C1078.5 181.346 1072.2 178.007 1063.88 178.007C1056.57 178.007 1050.37 180.464 1045.26 185.379C1040.16 190.231 1037.13 198.832 1036.19 211.183Z" fill="#1EA7DC"/>
<path d="M1159.42 266.761C1156.15 266.761 1155.3 264.681 1156.87 260.522L1203.94 136.985C1205.39 133.141 1207.47 131.219 1210.18 131.219H1223.41C1226.12 131.219 1228.2 133.141 1229.65 136.985L1276.72 260.522C1278.3 264.681 1277.45 266.761 1274.17 266.761H1264.53C1261.19 266.761 1258.92 265.217 1257.72 262.129L1245.91 230.843H1187.68L1175.87 262.129C1174.67 265.217 1172.4 266.761 1169.06 266.761H1159.42ZM1193.64 215.342H1239.95L1225.49 177.534C1224.17 174.005 1222.85 170.098 1221.52 165.813C1220.26 161.529 1218.75 155.448 1216.99 147.571H1216.61C1214.84 155.448 1213.3 161.529 1211.98 165.813C1210.72 170.098 1209.42 174.005 1208.1 177.534L1193.64 215.342ZM1289.77 266.761C1285.54 266.761 1284.73 264.902 1287.31 261.184L1319.54 214.491L1290.9 173.092C1288.32 169.374 1289.14 167.515 1293.36 167.515H1302.62C1304.89 167.515 1306.56 168.334 1307.63 169.972L1328.52 202.865L1349.31 169.972C1350.32 168.334 1351.99 167.515 1354.32 167.515H1363.68C1367.9 167.515 1368.72 169.374 1366.14 173.092L1337.5 214.491L1369.73 261.184C1372.31 264.902 1371.49 266.761 1367.27 266.761H1358.01C1355.74 266.761 1354.07 265.942 1353 264.303L1328.52 226.023L1304.04 264.303C1302.97 265.942 1301.3 266.761 1299.03 266.761H1289.77ZM1388.44 266.761C1385.61 266.761 1384.19 265.343 1384.19 262.507V144.547C1384.19 143.286 1384.51 142.089 1385.14 140.955L1391.75 128.951C1392.95 126.745 1393.93 125.643 1394.68 125.643H1397.99C1399.88 125.643 1400.83 126.745 1400.83 128.951V262.507C1400.83 265.343 1399.41 266.761 1396.57 266.761H1388.44ZM1422.28 217.138C1422.28 201.511 1426.19 189.065 1434 179.802C1441.82 170.539 1453 165.908 1467.56 165.908C1479.66 165.908 1489.68 170.161 1497.62 178.668C1505.62 187.112 1509.62 200.628 1509.62 219.217C1509.62 222.053 1508.33 223.471 1505.74 223.471H1439.86C1440.93 235.632 1444.21 244.107 1449.69 248.896C1455.18 253.622 1461.38 255.985 1468.31 255.985C1475.62 255.985 1481.23 254.757 1485.14 252.299C1489.05 249.842 1491.91 247.416 1493.74 245.021C1495.76 242.375 1497.71 241.871 1499.6 243.509L1505.18 248.329C1506.63 249.59 1506.63 251.322 1505.18 253.528C1503.98 255.355 1500.55 258.285 1494.87 262.318C1489.27 266.351 1480.41 268.368 1468.31 268.368C1452.56 268.368 1440.93 263.736 1433.44 254.473C1426 245.21 1422.28 232.765 1422.28 217.138ZM1439.49 211.183H1492.89C1492.64 202.361 1490.37 194.642 1486.08 188.026C1481.8 181.346 1475.5 178.007 1467.18 178.007C1459.87 178.007 1453.66 180.464 1448.56 185.379C1443.46 190.231 1440.43 198.832 1439.49 211.183Z" fill="#34C4B8"/>
<path d="M215.396 56.0472C215.168 55.4368 215.212 48.3042 215.448 47.8455C215.552 47.6417 215.977 47.17 216.509 46.6663C217.23 45.9814 217.478 45.8008 217.836 45.6879C218.485 45.4828 222.973 45.5695 226.102 45.8474C238.974 46.9906 251.127 51.6289 261.36 59.3036C264.495 61.6542 265.293 62.3584 268.81 65.8756C272.327 69.3927 273.031 70.1911 275.382 73.3252C283.057 83.5585 287.695 95.7116 288.838 108.583C289.116 111.713 289.203 116.2 288.998 116.85C288.885 117.208 288.703 117.455 288.019 118.177C287.515 118.708 287.042 119.132 286.84 119.238C286.351 119.489 279.239 119.517 278.61 119.27C278.007 119.034 277.326 118.346 277.1 117.743C276.99 117.451 276.919 116.453 276.903 114.977C276.832 108.7 275.954 103.322 274.047 97.5003C271.688 90.2973 268.288 84.2271 263.149 78.0421C261.23 75.733 257.345 72.0274 254.603 69.8919C249.366 65.8133 243.55 62.7233 237.186 60.6391C231.364 58.7324 225.986 57.8536 219.709 57.783C218.233 57.7664 217.235 57.6952 216.943 57.5857C216.351 57.3631 215.616 56.6312 215.396 56.0472Z" fill="white"/>
<path d="M95 294.092V70.9351H183.042C199.896 70.9351 214.279 73.9497 226.192 79.979C238.178 85.9357 247.295 94.3985 253.542 105.368C259.862 116.264 263.022 129.085 263.022 143.832C263.022 158.651 259.825 171.399 253.433 182.078C247.04 192.684 237.778 200.82 225.647 206.486C213.589 212.152 198.987 214.985 181.844 214.985H122.895V177.065H174.216C183.224 177.065 190.706 175.831 196.663 173.361C202.62 170.891 207.051 167.186 209.956 162.246C212.935 157.307 214.424 151.169 214.424 143.832C214.424 136.422 212.935 130.175 209.956 125.09C207.051 120.005 202.583 116.155 196.554 113.54C190.597 110.852 183.079 109.508 173.999 109.508H142.181V294.092H95ZM215.514 192.538L270.976 294.092H218.891L164.628 192.538H215.514Z" fill="white"/>
<path d="M214.454 139.608C220.209 142.486 220.209 150.699 214.454 153.576L143.83 188.888L143.83 104.296L214.454 139.608Z" fill="#34C4B8"/>
<defs>
<linearGradient id="paint0_linear_1724_8083" x1="20.1969" y1="0.183102" x2="244.69" y2="393.859" gradientUnits="userSpaceOnUse">
<stop stop-color="#1EA7DC"/>
<stop offset="1" stop-color="#34C4B8"/>
</linearGradient>
</defs>
</svg>
