<svg width="126" height="19" viewBox="0 0 126 19" fill="none" xmlns="http://www.w3.org/2000/svg">
<circle cx="9.5" cy="9.5" r="9.5" fill="#FFA73F"/>
<path d="M2.00187 11.5606C2.08059 11.5484 2.1593 11.5309 2.23802 11.5274C2.31673 11.5239 2.37108 11.5676 2.37483 11.6426C2.3842 11.77 2.39357 11.8974 2.38608 12.0249C2.37858 12.147 2.39732 12.1941 2.51727 12.2413C2.74591 12.332 2.97831 12.3984 3.22945 12.3826C3.31191 12.3774 3.39437 12.3565 3.47684 12.3442C3.56492 12.332 3.65488 12.3233 3.74297 12.3093C3.7842 12.3024 3.82356 12.2866 3.86291 12.2709C3.98848 12.2221 4.11592 12.1732 4.23962 12.1191C4.40267 12.0475 4.58634 11.9969 4.71753 11.8905C4.86934 11.7665 5.053 11.7072 5.20856 11.6025C5.31539 11.5309 5.40909 11.4402 5.51217 11.3634C5.55903 11.3285 5.61712 11.304 5.66398 11.2691C5.76706 11.1906 5.86451 11.1068 5.96572 11.0265C6.01819 10.9846 6.07629 10.9497 6.1269 10.9078C6.32743 10.7385 6.52422 10.5675 6.72475 10.3982C6.76973 10.3598 6.76036 10.3336 6.71913 10.3092C6.68539 10.29 6.64604 10.2778 6.61043 10.2621C6.27495 10.112 5.9526 9.93919 5.6696 9.71579C5.50842 9.58838 5.33975 9.4697 5.19356 9.3196C5.03051 9.15205 4.90682 8.9653 4.77563 8.78029C4.73627 8.72619 4.72128 8.65114 4.71191 8.58307C4.67255 8.2724 4.67067 7.97221 4.91806 7.71565C5.02864 7.6022 5.15046 7.50446 5.28727 7.4329C5.3866 7.38229 5.5103 7.28281 5.64524 7.39276C5.66398 7.40672 5.69959 7.40498 5.72583 7.40672C5.90387 7.42069 6.04631 7.61965 5.99196 7.77848C5.95822 7.87622 5.87951 7.90763 5.74832 7.87622C5.73332 7.87273 5.7202 7.86051 5.70521 7.86051C5.63961 7.86225 5.55153 7.84305 5.51405 7.87447C5.47281 7.91112 5.4522 7.99839 5.46719 8.05424C5.49343 8.15896 5.55715 8.25495 5.59463 8.35793C5.66773 8.55689 5.81766 8.70699 5.9451 8.8728C6.10628 9.08398 6.29744 9.27248 6.52234 9.42432C6.67415 9.52729 6.85032 9.5971 7.02274 9.67041C7.16143 9.72975 7.22328 9.70357 7.30387 9.57093C7.42194 9.37719 7.57562 9.21139 7.76116 9.07351C7.98419 8.90596 8.2372 8.86931 8.51645 8.9077C8.98873 8.97228 9.30547 9.43304 9.36919 9.74546C9.3898 9.84494 9.33545 9.95839 9.30921 10.0649C9.30359 10.0858 9.27548 10.112 9.25112 10.119C9.20426 10.1312 9.14241 10.1504 9.10493 10.1312C9.07869 10.1172 9.06932 10.0509 9.07307 10.009C9.07869 9.94966 9.11243 9.89206 9.11805 9.83272C9.14616 9.53776 8.8463 9.27247 8.46397 9.41734C8.21283 9.51158 8.04978 9.68612 7.89985 9.88334C7.76866 10.0579 7.72555 10.2656 7.63747 10.4558C7.54751 10.653 7.49503 10.8555 7.46879 11.0667C7.44443 11.2726 7.40507 11.4786 7.40132 11.6863C7.39945 11.8643 7.45192 12.0406 7.45755 12.2186C7.4613 12.4088 7.56625 12.5607 7.64684 12.7212C7.67682 12.7823 7.75366 12.8312 7.82113 12.8644C7.92796 12.9167 8.03479 12.9621 8.0629 13.086C8.07227 13.1244 8.07227 13.1645 8.08164 13.2361C8.18285 13.175 8.28405 13.1366 8.35152 13.0686C8.53519 12.8835 8.72635 12.7003 8.87254 12.4909C9.01685 12.2814 9.12742 12.0493 9.19489 11.8032C9.22863 11.6845 9.29422 11.5711 9.32421 11.4524C9.37481 11.2621 9.41229 11.0667 9.44978 10.8729C9.50975 10.5588 9.53786 10.2429 9.53599 9.92174C9.53411 9.65296 9.49476 9.39116 9.42916 9.1311C9.4048 9.03337 9.38043 8.93388 9.35794 8.83614C9.3317 8.71572 9.22113 8.65288 9.07494 8.71048C8.86691 8.79251 8.65513 8.78553 8.44148 8.78378C8.33465 8.78378 8.29904 8.7576 8.31029 8.65987C8.32341 8.55864 8.24469 8.49406 8.22783 8.41028C8.19784 8.25495 8.1791 8.09438 8.18097 7.9373C8.18472 7.66154 8.18847 7.38403 8.22783 7.11176C8.25406 6.9285 8.31029 6.7435 8.43023 6.58468C8.47147 6.53057 8.51832 6.47647 8.53894 6.41538C8.56705 6.33335 8.55955 6.25481 8.49583 6.17278C8.38526 6.03315 8.2953 5.88306 8.12662 5.78881C8.02542 5.73121 7.93546 5.65616 7.83613 5.59508C7.79864 5.57239 7.74804 5.56715 7.70306 5.55843C7.65808 5.54795 7.60561 5.55144 7.56625 5.53225C7.4538 5.4764 7.33573 5.48163 7.21953 5.49385C7.10521 5.50607 6.98713 5.5113 6.88218 5.5497C6.65166 5.63173 6.42863 5.73121 6.20186 5.82546C6.16813 5.83942 6.13439 5.8656 6.09878 5.8656C6.05755 5.8656 6.01445 5.8464 5.97134 5.83419C5.98446 5.80277 5.98821 5.76263 6.0107 5.74168C6.11565 5.65267 6.23747 5.57937 6.33493 5.48338C6.50547 5.31757 6.74724 5.27917 6.94778 5.16747C6.9609 5.16049 6.97589 5.15002 6.99088 5.15002C7.27575 5.12559 7.55875 5.03483 7.84925 5.12559C7.87361 5.13257 7.89797 5.1378 7.92234 5.13955C8.19034 5.15351 8.404 5.27568 8.60453 5.43102C8.76009 5.55144 8.91377 5.67187 9.02434 5.83419C9.05995 5.88655 9.10681 5.89353 9.16678 5.85164C9.21738 5.81499 9.2811 5.79404 9.33733 5.76612C9.41604 5.72772 9.44978 5.67362 9.41979 5.5881C9.29235 5.18842 9.08432 4.84459 8.70574 4.61071C8.47709 4.46934 8.22408 4.37859 7.9542 4.32623C7.93733 4.32274 7.91859 4.33321 7.89985 4.33321C7.82301 4.33495 7.74617 4.33495 7.66933 4.3367C7.59998 4.3367 7.52877 4.3367 7.45942 4.33844C7.36571 4.34019 7.27013 4.35415 7.18017 4.34193C7.13707 4.3367 7.10333 4.2791 7.06585 4.2442C7.09958 4.21802 7.1277 4.17962 7.16518 4.1674C7.33198 4.11155 7.50065 4.05745 7.6712 4.01207C7.7293 3.99636 7.7949 3.99985 7.85674 4.0016C8.04228 4.00683 8.23345 3.97716 8.40587 4.06792C8.41149 4.07141 8.41337 4.07141 8.41712 4.07141C8.68699 4.06966 8.89128 4.22151 9.11243 4.33146C9.30921 4.4292 9.44228 4.59152 9.60346 4.72416C9.75526 4.84808 9.82836 5.01388 9.91269 5.16747C9.97829 5.28616 10.0757 5.41182 10.042 5.56715C10.0364 5.5881 10.0814 5.6422 10.0926 5.64046C10.2332 5.61428 10.325 5.71201 10.4337 5.75565C10.7036 5.8656 10.8666 6.06631 10.996 6.31415C11.0784 6.47298 11.0672 6.6318 11.0822 6.78364C11.0972 6.95818 11.069 7.13969 11.0035 7.31771C10.8966 7.61442 10.6867 7.83782 10.4656 8.05598C10.3587 8.1607 10.2332 8.25146 10.1039 8.32825C9.98016 8.4033 9.84148 8.45392 9.70654 8.51151C9.64656 8.53769 9.6147 8.56562 9.64656 8.63194C9.70466 8.75237 9.75526 8.87629 9.81336 8.99846C9.82648 9.02464 9.86209 9.06304 9.87896 9.05955C9.90894 9.05256 9.94643 9.02289 9.9558 8.99671C10.0176 8.83091 10.1413 8.71048 10.2763 8.59703C10.4525 8.44694 10.6249 8.28986 10.8123 8.15547C11.0803 7.96348 11.3783 7.81513 11.6856 7.68248C11.8037 7.63187 11.918 7.57253 12.0361 7.52191C12.1111 7.4905 12.1917 7.4713 12.2704 7.44338C12.4128 7.39102 12.5496 7.31946 12.6958 7.28979C12.842 7.26012 12.9676 7.15889 13.1269 7.18158C13.1362 7.18332 13.1475 7.18332 13.155 7.17983C13.3124 7.07686 13.5129 7.11875 13.6816 7.05068C13.6966 7.04544 13.7097 7.03672 13.7247 7.03497C13.9384 7.00181 14.152 6.96341 14.3676 6.94072C14.5775 6.91978 14.7893 6.9128 14.9992 6.90756C15.076 6.90582 15.1528 6.9285 15.2297 6.932C15.3571 6.93723 15.4864 6.93898 15.6139 6.93898C15.7188 6.93898 15.8163 6.94247 15.9194 6.99483C16.0281 7.04893 16.1649 7.05068 16.2792 7.0978C16.4179 7.15191 16.551 7.21997 16.6765 7.29851C16.819 7.38752 16.9145 7.52191 16.9651 7.67376C16.9914 7.74881 16.9876 7.83084 16.997 7.91112C17.0176 8.09089 16.9277 8.23924 16.8508 8.39458C16.7178 8.65812 16.4741 8.83091 16.2548 9.01766C16.0843 9.16252 15.8875 9.28295 15.6907 9.39988C15.4846 9.52206 15.2672 9.62852 15.0535 9.73673C14.9898 9.76989 14.9167 9.78735 14.8474 9.81527C14.8192 9.82574 14.7949 9.84145 14.7668 9.85367C14.763 9.86414 14.7593 9.87461 14.7574 9.88334C14.8061 9.90952 14.853 9.94442 14.9054 9.96013C15.106 10.0177 15.299 10.0788 15.4733 10.2027C15.6064 10.2987 15.7113 10.4122 15.8144 10.5291C15.8425 10.5605 15.8613 10.6059 15.865 10.646C15.8725 10.742 15.8838 10.8415 15.8613 10.9323C15.8369 11.03 15.7919 11.1295 15.7282 11.2115C15.6401 11.3232 15.5352 11.4245 15.4227 11.5135C15.3309 11.585 15.2203 11.6356 15.1135 11.6915C14.9804 11.7596 14.8473 11.8276 14.7105 11.8887C14.6393 11.9219 14.5606 11.9428 14.4856 11.9673C14.4088 11.9934 14.3301 12.0161 14.2514 12.0423C14.1108 12.0877 13.9684 12.1348 13.8278 12.1802C13.7941 12.1907 13.7566 12.1959 13.721 12.2029C13.586 12.2256 13.453 12.25 13.318 12.2727C13.2937 12.2762 13.2693 12.2832 13.2449 12.2832C13.0763 12.2849 12.9095 12.2849 12.7558 12.3634C12.7389 12.3722 12.7127 12.3687 12.6921 12.3687C12.4166 12.3687 12.1429 12.3774 11.8693 12.3669C11.6819 12.3582 11.4964 12.3198 11.3089 12.2989C11.2752 12.2954 11.234 12.3041 11.2077 12.3216C11.0166 12.4577 10.8329 12.6043 10.6342 12.7335C10.5087 12.8155 10.3662 12.8783 10.2276 12.9394C10.0945 12.9987 9.95392 13.0459 9.81524 13.0965C9.7965 13.1035 9.77213 13.1035 9.74964 13.1035C9.59783 13.1017 9.51162 13.1872 9.42541 13.2902C9.30734 13.4298 9.17615 13.5607 9.03746 13.6847C8.96062 13.7527 8.86129 13.8033 8.76946 13.8539C8.52769 13.9883 8.26718 14.0145 7.98793 13.9936C7.77615 13.9779 7.60935 13.8889 7.44443 13.7894C7.08646 13.566 6.85594 13.2588 6.74349 12.8888C6.68539 12.6985 6.69289 12.4891 6.82596 12.3111C6.85594 12.2709 6.90842 12.243 6.95527 12.2168C7.04711 12.168 7.04523 12.1453 7.02274 12.0493C6.98151 11.866 6.95527 11.681 6.92716 11.4943C6.91966 11.4489 6.93278 11.4 6.92716 11.3546C6.92341 11.3232 6.90092 11.2953 6.8878 11.2639C6.86344 11.2813 6.8372 11.2971 6.81471 11.318C6.67415 11.4506 6.53546 11.5833 6.39677 11.7159C6.31993 11.791 6.24497 11.8678 6.1625 11.9376C6.07254 12.0126 5.97321 12.0772 5.88138 12.1523C5.82328 12.1994 5.78205 12.264 5.72395 12.3093C5.61338 12.3914 5.4953 12.4629 5.38098 12.5415C5.19169 12.6706 5.0099 12.812 4.81124 12.9289C4.58634 13.0616 4.34832 13.1768 4.1103 13.2885C3.98473 13.3478 3.84605 13.3845 3.71298 13.4316C3.69049 13.4403 3.66425 13.4438 3.63989 13.4438C3.53306 13.4403 3.4356 13.4752 3.3344 13.5031C3.22757 13.5328 3.10388 13.5136 2.98768 13.5084C2.9427 13.5066 2.89585 13.4805 2.85274 13.4822C2.61098 13.4892 2.41231 13.3897 2.23427 13.2553C2.1668 13.2029 2.13119 13.1174 2.07684 13.0476C2.05622 13.0197 2.02624 12.997 2 12.9726C2.00187 12.5031 2.00187 12.0318 2.00187 11.5606ZM12.9395 9.61281C12.9451 9.61456 12.9713 9.63027 12.9938 9.62678C13.0931 9.60583 13.1925 9.58314 13.2899 9.55522C13.4024 9.5238 13.5111 9.4854 13.6235 9.45573C13.7491 9.42083 13.8765 9.3929 14.004 9.35625C14.0864 9.33356 14.1708 9.31087 14.2495 9.27597C14.405 9.20441 14.5587 9.12587 14.7087 9.04558C14.9261 8.93039 15.121 8.78553 15.2784 8.60227C15.3984 8.46264 15.3984 8.34047 15.2634 8.24622C15.1697 8.18165 15.0629 8.12231 14.9336 8.12405C14.7799 8.1258 14.6262 8.11707 14.4744 8.12929C14.2495 8.14849 14.0208 8.09438 13.7959 8.18514C13.6366 8.24797 13.4511 8.24972 13.2787 8.28637C13.14 8.31604 13.0013 8.35094 12.8682 8.39458C12.6602 8.4609 12.4578 8.53769 12.2516 8.60751C12.0492 8.67732 11.8431 8.74015 11.6425 8.8152C11.4982 8.8693 11.3614 8.93737 11.2227 9.0002C11.1534 9.03162 11.0878 9.06827 11.0184 9.09794C10.8929 9.1503 10.7636 9.19219 10.6417 9.24979C10.4599 9.33705 10.2838 9.43479 10.1039 9.5238C10.0458 9.55173 10.0439 9.59012 10.0533 9.63899C10.0776 9.76466 10.102 9.89032 10.1226 10.016C10.1357 10.1015 10.1863 10.1382 10.2688 10.105C10.4206 10.0422 10.5705 9.9706 10.7223 9.90603C10.8891 9.83621 11.0559 9.7664 11.2265 9.70531C11.3464 9.66168 11.4739 9.63376 11.5938 9.59361C11.7156 9.55347 11.8337 9.5046 11.9537 9.46097C11.9705 9.45399 11.9911 9.45748 12.008 9.45399C12.1729 9.41908 12.3435 9.39639 12.5028 9.34578C12.6246 9.30564 12.7427 9.29516 12.8682 9.29167C12.9432 9.28993 12.9901 9.32483 12.9844 9.39639C12.9769 9.45922 12.9563 9.52555 12.9395 9.61281ZM12.5871 11.578C12.5871 11.5728 12.5871 11.5676 12.5871 11.5623C12.737 11.5623 12.887 11.5641 13.0369 11.5606C13.0819 11.5588 13.125 11.5414 13.17 11.5309C13.2318 11.517 13.2937 11.4995 13.3555 11.4873C13.3855 11.4803 13.4192 11.4855 13.4474 11.4768C13.5823 11.4297 13.721 11.3861 13.8522 11.3285C14.049 11.2429 14.2476 11.1557 14.3601 10.9654C14.4032 10.8939 14.4125 10.8258 14.3713 10.7508C14.3132 10.6443 14.2064 10.6094 14.0996 10.5588C13.8765 10.4506 13.6441 10.3965 13.3949 10.3965C13.1287 10.3965 12.8645 10.3947 12.5984 10.3965C12.5496 10.3965 12.5009 10.4104 12.4522 10.4174C12.3004 10.4401 12.1467 10.461 11.9949 10.4837C11.9537 10.4907 11.9124 10.5064 11.8712 10.5186C11.8018 10.5378 11.7325 10.5588 11.6613 10.5762C11.6201 10.5867 11.5751 10.5832 11.5338 10.5954C11.4176 10.6303 11.3033 10.674 11.1852 10.7071C11.0184 10.756 10.846 10.7927 10.6811 10.845C10.5612 10.8834 10.4431 10.9288 10.3325 10.9881C10.2707 11.0213 10.1957 11.0789 10.1826 11.1365C10.1488 11.2726 10.1488 11.4175 10.1338 11.5571C10.1282 11.6199 10.1601 11.6269 10.2144 11.6025C10.2482 11.5885 10.2819 11.5746 10.3175 11.5641C10.4674 11.5205 10.6174 11.4786 10.7673 11.4384C10.8198 11.4245 10.876 11.414 10.9304 11.4018C10.9866 11.3896 11.0447 11.3756 11.1009 11.3634C11.1515 11.3512 11.2021 11.3372 11.2527 11.3285C11.3071 11.318 11.3708 11.3267 11.4176 11.304C11.6032 11.2133 11.8018 11.2482 11.9968 11.2447C12.0286 11.2447 12.0755 11.2639 12.0886 11.2866C12.0998 11.3093 12.083 11.3529 12.0642 11.3773C12.0417 11.407 12.0024 11.4262 11.978 11.4559C11.9593 11.4786 11.9368 11.5152 11.9443 11.5362C11.9518 11.5554 11.9968 11.5728 12.0267 11.5728C12.2123 11.5798 12.3997 11.578 12.5871 11.578ZM9.80212 7.52366C10.0326 7.55857 10.3437 7.39102 10.4693 7.23394C10.5349 7.15191 10.5724 7.04544 10.6043 6.94421C10.6455 6.80808 10.6024 6.67543 10.5031 6.57595C10.4168 6.48868 10.3081 6.42236 10.1676 6.43109C10.0345 6.43807 9.92581 6.50265 9.8321 6.5742C9.66718 6.70161 9.58472 6.8744 9.59034 7.0786C9.59221 7.16063 9.58846 7.24092 9.58846 7.32295C9.58472 7.52541 9.58472 7.52541 9.80212 7.52366ZM8.00293 13.2379C7.90547 13.2134 7.81176 13.2047 7.7368 13.1663C7.52877 13.0633 7.40507 12.887 7.30199 12.6968C7.24764 12.5991 7.19329 12.5013 7.13707 12.4018C6.97964 12.4978 6.98713 12.9045 7.23452 13.1506C7.44443 13.36 7.82676 13.3478 8.00293 13.2379Z" fill="#2D2D2D"/>
<path d="M32.5953 17.7957L28.2419 12.4393V17.7957H25V1H28.2419V10.5554L32.549 5.22163H36.7635L31.1133 11.5314L36.8098 17.7957H32.5953Z" fill="#FFA73F"/>
<path d="M42.2975 7.83177V13.9146C42.2975 14.3382 42.3978 14.6484 42.5985 14.8451C42.8146 15.0267 43.1697 15.1175 43.6637 15.1175H45.1689V17.7957H43.1311C40.3987 17.7957 39.0324 16.4944 39.0324 13.8919V7.83177H37.5041V5.22163H39.0324V2.11215H42.2975V5.22163H45.1689V7.83177H42.2975Z" fill="#FFA73F"/>
<path d="M63.4322 5.04005C65.0069 5.04005 66.2728 5.51669 67.2299 6.46996C68.2025 7.4081 68.6888 8.72452 68.6888 10.4192V17.7957H65.4469V10.8505C65.4469 9.86693 65.1921 9.11793 64.6827 8.60347C64.1732 8.07387 63.4786 7.80908 62.5986 7.80908C61.7187 7.80908 61.0163 8.07387 60.4914 8.60347C59.9819 9.11793 59.7272 9.86693 59.7272 10.8505V17.7957H56.4853V10.8505C56.4853 9.86693 56.2306 9.11793 55.7212 8.60347C55.2117 8.07387 54.517 7.80908 53.6371 7.80908C52.7417 7.80908 52.0316 8.07387 51.5067 8.60347C50.9972 9.11793 50.7425 9.86693 50.7425 10.8505V17.7957H47.5006V5.22163H50.7425V6.74232C51.1593 6.21273 51.6919 5.79662 52.3403 5.49399C53.0041 5.19137 53.7297 5.04005 54.517 5.04005C55.5205 5.04005 56.4158 5.25189 57.2032 5.67557C57.9905 6.08411 58.6003 6.67423 59.0325 7.44593C59.4493 6.71963 60.0514 6.13707 60.8387 5.69826C61.6415 5.25946 62.506 5.04005 63.4322 5.04005Z" fill="#FFA73F"/>
<path d="M75.007 7.06008C75.4238 6.45483 75.995 5.96306 76.7206 5.58478C77.4616 5.2065 78.3029 5.01736 79.2446 5.01736C80.3407 5.01736 81.3287 5.28215 82.2087 5.81175C83.104 6.34134 83.8065 7.09791 84.3159 8.08144C84.8408 9.04984 85.1032 10.1771 85.1032 11.4633C85.1032 12.7494 84.8408 13.8919 84.3159 14.8905C83.8065 15.8741 83.104 16.6382 82.2087 17.1829C81.3287 17.7276 80.3407 18 79.2446 18C78.2875 18 77.4462 17.8184 76.7206 17.4553C76.0105 17.077 75.4393 16.5928 75.007 16.0027V17.7957H71.7651V1H75.007V7.06008ZM81.7918 11.4633C81.7918 10.7067 81.6298 10.0561 81.3056 9.51135C80.9968 8.95149 80.58 8.52781 80.0551 8.24032C79.5457 7.95282 78.9899 7.80908 78.3879 7.80908C77.8012 7.80908 77.2455 7.96039 76.7206 8.26302C76.2112 8.55051 75.7943 8.97419 75.4701 9.53405C75.1614 10.0939 75.007 10.7521 75.007 11.5087C75.007 12.2652 75.1614 12.9235 75.4701 13.4833C75.7943 14.0432 76.2112 14.4744 76.7206 14.777C77.2455 15.0645 77.8012 15.2083 78.3879 15.2083C78.9899 15.2083 79.5457 15.057 80.0551 14.7543C80.58 14.4517 80.9968 14.0205 81.3056 13.4606C81.6298 12.9008 81.7918 12.235 81.7918 11.4633Z" fill="#FFA73F"/>
<path d="M99.3846 11.2363C99.3846 11.6903 99.3537 12.0988 99.292 12.4619H89.9136C89.9908 13.3698 90.315 14.081 90.8862 14.5955C91.4574 15.1099 92.1598 15.3672 92.9934 15.3672C94.1975 15.3672 95.0543 14.8603 95.5638 13.8465H99.0604C98.6899 15.057 97.9798 16.0556 96.93 16.8425C95.8802 17.6142 94.5912 18 93.0629 18C91.8279 18 90.7164 17.7352 89.7284 17.2056C88.7558 16.6609 87.9916 15.8968 87.4359 14.9132C86.8955 13.9297 86.6254 12.7948 86.6254 11.5087C86.6254 10.2074 86.8955 9.06498 87.4359 8.08144C87.9762 7.09791 88.7326 6.34134 89.7052 5.81175C90.6778 5.28215 91.797 5.01736 93.0629 5.01736C94.2824 5.01736 95.3708 5.27459 96.3279 5.78905C97.3005 6.30351 98.0492 7.03738 98.5741 7.99065C99.1144 8.92879 99.3846 10.0107 99.3846 11.2363ZM96.0269 10.3284C96.0115 9.51135 95.7104 8.8607 95.1238 8.3765C94.5372 7.87717 93.8193 7.6275 92.9703 7.6275C92.1675 7.6275 91.4882 7.8696 90.9325 8.3538C90.3922 8.82287 90.0603 9.48108 89.9368 10.3284H96.0269Z" fill="#FFA73F"/>
<path d="M113.676 11.2363C113.676 11.6903 113.646 12.0988 113.584 12.4619H104.205C104.283 13.3698 104.607 14.081 105.178 14.5955C105.749 15.1099 106.452 15.3672 107.285 15.3672C108.489 15.3672 109.346 14.8603 109.856 13.8465H113.352C112.982 15.057 112.272 16.0556 111.222 16.8425C110.172 17.6142 108.883 18 107.355 18C106.12 18 105.008 17.7352 104.02 17.2056C103.048 16.6609 102.283 15.8968 101.728 14.9132C101.187 13.9297 100.917 12.7948 100.917 11.5087C100.917 10.2074 101.187 9.06498 101.728 8.08144C102.268 7.09791 103.024 6.34134 103.997 5.81175C104.97 5.28215 106.089 5.01736 107.355 5.01736C108.574 5.01736 109.663 5.27459 110.62 5.78905C111.592 6.30351 112.341 7.03738 112.866 7.99065C113.406 8.92879 113.676 10.0107 113.676 11.2363ZM110.319 10.3284C110.303 9.51135 110.002 8.8607 109.416 8.3765C108.829 7.87717 108.111 7.6275 107.262 7.6275C106.459 7.6275 105.78 7.8696 105.224 8.3538C104.684 8.82287 104.352 9.48108 104.229 10.3284H110.319Z" fill="#FFA73F"/>
<path d="M120.952 18C119.902 18 118.96 17.8184 118.127 17.4553C117.293 17.077 116.629 16.5701 116.135 15.9346C115.657 15.2991 115.394 14.5955 115.348 13.8238H118.613C118.675 14.308 118.914 14.7089 119.331 15.0267C119.763 15.3445 120.296 15.5033 120.929 15.5033C121.546 15.5033 122.025 15.3823 122.364 15.1402C122.72 14.8981 122.897 14.5879 122.897 14.2096C122.897 13.8011 122.681 13.4984 122.249 13.3017C121.832 13.0899 121.16 12.8629 120.234 12.6208C119.277 12.3939 118.49 12.1593 117.872 11.9172C117.27 11.6751 116.745 11.3044 116.297 10.8051C115.865 10.3057 115.649 9.6324 115.649 8.78505C115.649 8.08901 115.85 7.45349 116.251 6.8785C116.668 6.30351 117.255 5.84958 118.011 5.51669C118.783 5.1838 119.686 5.01736 120.72 5.01736C122.249 5.01736 123.468 5.39564 124.379 6.1522C125.29 6.89364 125.792 7.89987 125.884 9.17089H122.781C122.735 8.67156 122.519 8.27815 122.133 7.99065C121.762 7.68803 121.261 7.53671 120.628 7.53671C120.041 7.53671 119.586 7.64263 119.261 7.85447C118.953 8.06631 118.798 8.36137 118.798 8.73965C118.798 9.16333 119.014 9.48865 119.447 9.71562C119.879 9.92746 120.551 10.1469 121.461 10.3738C122.388 10.6008 123.152 10.8353 123.754 11.0774C124.356 11.3195 124.873 11.6978 125.305 12.2123C125.753 12.7116 125.985 13.3774 126 14.2096C126 14.9359 125.792 15.5866 125.375 16.1615C124.973 16.7365 124.387 17.1905 123.615 17.5234C122.858 17.8411 121.971 18 120.952 18Z" fill="#FFA73F"/>
</svg>
