<svg width="82" height="60" viewBox="0 0 82 60" fill="none" xmlns="http://www.w3.org/2000/svg">
<path d="M43.2392 14.8115L43.3203 14.832L43.3231 14.8293C43.8158 14.9153 44.3323 14.6724 44.4892 14.2227C45.866 10.2942 50.2153 7.52901 55.0854 7.52901C55.6201 7.52901 56.0971 7.15617 56.0971 6.64727C56.0971 6.13834 55.6201 5.76553 55.0854 5.76553C49.1621 5.76553 44.1635 9.11531 42.5547 13.7065C42.3825 14.1971 42.72 14.68 43.2392 14.8115Z" fill="#1EA7DC" stroke="#F9FFF9" stroke-width="0.3"/>
<path d="M67.1471 42.5024H61.9774C61.5017 42.5024 61.1158 42.1747 61.1158 41.7706C61.1158 41.3666 61.5016 41.0389 61.9774 41.0389H67.1471C74.2734 41.0389 80.0716 36.1148 80.0716 30.063C80.0716 24.0111 74.2734 19.087 67.1471 19.087H67.0228C66.7729 19.087 66.5354 18.995 66.3717 18.8346C66.208 18.6741 66.1341 18.4614 66.1698 18.2513C66.2467 17.7955 66.2855 17.3376 66.2855 16.8918C66.2855 11.6469 61.2603 7.37928 55.0842 7.37928C52.6815 7.37928 50.3901 8.01693 48.4576 9.22374C48.0329 9.48874 47.4298 9.37114 47.1842 8.97443C41.711 0.123664 27.4156 -1.0649 20.0042 6.63449C16.882 9.87813 15.6553 14.0976 16.6383 18.21C16.7466 18.6642 16.3373 19.0876 15.7939 19.0876H15.4486C8.32236 19.0876 2.52413 24.0116 2.52413 30.0635C2.52413 36.1154 8.32236 41.0395 15.4486 41.0395H20.6184C21.0941 41.0395 21.48 41.3672 21.48 41.7712C21.48 42.1752 21.0941 42.5029 20.6184 42.5029H15.4486C7.37198 42.5029 0.800781 36.9225 0.800781 30.0635C0.800781 23.3969 7.00818 17.9382 14.7722 17.6371C14.0429 13.3705 15.4375 9.06691 18.6699 5.70834C26.6049 -2.53563 41.8117 -1.61159 48.24 7.58104C50.2908 6.48918 52.6374 5.9164 55.0839 5.9164C62.5666 5.9164 68.4959 11.325 67.9771 17.6439C75.6696 18.0103 81.7946 23.4402 81.7946 30.0629C81.7946 36.9225 75.2234 42.5024 67.1467 42.5024L67.1471 42.5024Z" fill="#1EA7DC"/>
<path d="M19.4906 41.3574C19.4906 51.5494 29.2451 59.8009 41.1817 59.8009C53.1185 59.8009 62.8728 51.5493 62.8728 41.3574C62.8728 31.1654 53.1185 22.914 41.1817 22.914C29.2449 22.914 19.4906 31.1656 19.4906 41.3574ZM21.5143 41.3574C21.5143 32.1826 30.3133 24.6778 41.1817 24.6778C52.0499 24.6778 60.8491 32.1825 60.8491 41.3574C60.8491 50.5323 52.0499 58.0371 41.1817 58.0371C30.3135 58.0371 21.5143 50.5324 21.5143 41.3574Z" fill="#1EA7DC" stroke="#F9FFF9" stroke-width="0.3"/>
<path d="M40.7953 48.7216C40.7953 49.1223 41.1689 49.4073 41.5761 49.4073C41.9833 49.4073 42.3569 49.1227 42.3569 48.7216V34.793C42.3569 34.3924 41.9834 34.1073 41.5761 34.1073C41.1689 34.1073 40.7953 34.3924 40.7953 34.793V48.7216Z" fill="#1EA7DC" stroke="#483EA8" stroke-width="0.3"/>
<path d="M46.0792 39.5731C46.2325 39.7034 46.4299 39.7657 46.6223 39.7657L37.0726 39.5731L41.5758 35.7488L46.0792 39.5731ZM35.9862 39.5731C36.2886 39.8299 36.7704 39.8301 37.0725 39.5731L47.1655 39.5731C47.4825 39.3039 47.4825 38.856 47.1655 38.5868L42.119 34.3012C41.8166 34.0444 41.3348 34.0443 41.0327 34.3012C41.0326 34.3012 41.0326 34.3012 41.0325 34.3013L35.9862 38.5868C35.6692 38.856 35.6692 39.3039 35.9862 39.5731ZM46.6223 39.7657C46.8144 39.7657 47.0119 39.7039 47.1655 39.5731L46.6223 39.7657Z" fill="#1EA7DC" stroke="#483EA8" stroke-width="0.3"/>
</svg>
