<svg width="41" height="40" viewBox="0 0 41 40" fill="none" xmlns="http://www.w3.org/2000/svg">
<path d="M7.375 35C6.21468 35 5.10188 34.5391 4.28141 33.7186C3.46094 32.8981 3 31.7853 3 30.625V24.375C3 23.8777 3.19754 23.4008 3.54917 23.0492C3.90081 22.6975 4.37772 22.5 4.875 22.5C5.37228 22.5 5.84919 22.6975 6.20083 23.0492C6.55246 23.4008 6.75 23.8777 6.75 24.375V30.625C6.75 30.97 7.03 31.25 7.375 31.25H33.625C33.7908 31.25 33.9497 31.1842 34.0669 31.0669C34.1842 30.9497 34.25 30.7908 34.25 30.625V24.375C34.25 23.8777 34.4475 23.4008 34.7992 23.0492C35.1508 22.6975 35.6277 22.5 36.125 22.5C36.6223 22.5 37.0992 22.6975 37.4508 23.0492C37.8025 23.4008 38 23.8777 38 24.375V30.625C38 31.7853 37.5391 32.8981 36.7186 33.7186C35.8981 34.5391 34.7853 35 33.625 35H7.375Z" fill="#6E7191"/>
<path d="M29.95 11.8C30.124 11.974 30.262 12.1806 30.3562 12.4079C30.4504 12.6353 30.4988 12.8789 30.4988 13.125C30.4988 13.3711 30.4504 13.6147 30.3562 13.8421C30.262 14.0694 30.124 14.276 29.95 14.45C29.776 14.624 29.5694 14.762 29.3421 14.8562C29.1147 14.9504 28.8711 14.9988 28.625 14.9988C28.3789 14.9988 28.1353 14.9504 27.9079 14.8562C27.6806 14.762 27.474 14.624 27.3 14.45L22.375 9.5275V23.75C22.375 24.2473 22.1774 24.7242 21.8258 25.0758C21.4742 25.4275 20.9973 25.625 20.5 25.625C20.0027 25.625 19.5258 25.4275 19.1742 25.0758C18.8225 24.7242 18.625 24.2473 18.625 23.75V9.5275L13.7 14.45C13.526 14.624 13.3194 14.762 13.0921 14.8562C12.8647 14.9504 12.6211 14.9988 12.375 14.9988C12.1289 14.9988 11.8853 14.9504 11.6579 14.8562C11.4306 14.762 11.224 14.624 11.05 14.45C10.876 14.276 10.738 14.0694 10.6438 13.8421C10.5496 13.6147 10.5012 13.3711 10.5012 13.125C10.5012 12.8789 10.5496 12.6353 10.6438 12.4079C10.738 12.1806 10.876 11.974 11.05 11.8L19.175 3.675C19.3489 3.50084 19.5554 3.36267 19.7828 3.2684C20.0102 3.17413 20.2539 3.12561 20.5 3.12561C20.7461 3.12561 20.9898 3.17413 21.2172 3.2684C21.4445 3.36267 21.6511 3.50084 21.825 3.675L29.95 11.8Z" fill="#6E7191"/>
</svg>
