<!--
  - /*
  -  * Copyright (c) 2023 TechAxis.
  -  * All rights reserved.
  -  * Redistribution and use in source and binary forms, with or without modification, are not permitted.
  -  */
  -->

<svg width="37" height="31" viewBox="0 0 37 31" fill="none" xmlns="http://www.w3.org/2000/svg">
<path d="M14.8 23C15.3242 23 15.7639 22.82 16.1191 22.46C16.4743 22.1 16.6512 21.655 16.65 21.125V17.375H20.35C20.8742 17.375 21.3139 17.195 21.6691 16.835C22.0243 16.475 22.2012 16.03 22.2 15.5C22.2 14.9688 22.0224 14.5231 21.6672 14.1631C21.312 13.8031 20.8729 13.6238 20.35 13.625H16.65V9.875C16.65 9.34375 16.4724 8.89813 16.1172 8.53813C15.762 8.17813 15.3229 7.99875 14.8 8C14.2758 8 13.8362 8.18 13.481 8.54C13.1258 8.9 12.9488 9.345 12.95 9.875V13.625H9.25C8.72584 13.625 8.28615 13.805 7.93095 14.165C7.57575 14.525 7.39877 14.97 7.4 15.5C7.4 16.0312 7.5776 16.4769 7.9328 16.8369C8.288 17.1969 8.72707 17.3762 9.25 17.375H12.95V21.125C12.95 21.6562 13.1276 22.1019 13.4828 22.4619C13.838 22.8219 14.2771 23.0012 14.8 23ZM3.7 30.5C2.6825 30.5 1.81115 30.1325 1.08595 29.3975C0.360753 28.6625 -0.00123019 27.78 3.14092e-06 26.75V4.25C3.14092e-06 3.21875 0.362603 2.33563 1.0878 1.60063C1.813 0.865628 2.68374 0.498753 3.7 0.500003H25.9C26.9175 0.500003 27.7889 0.867503 28.5141 1.6025C29.2393 2.3375 29.6012 3.22 29.6 4.25V12.6875L35.4275 6.78125C35.705 6.5 36.0362 6.42938 36.421 6.56938C36.8058 6.70938 36.9988 6.99875 37 7.4375V23.5625C37 24 36.807 24.2894 36.421 24.4306C36.0349 24.5719 35.7038 24.5012 35.4275 24.2187L29.6 18.3125V26.75C29.6 27.7812 29.2374 28.6644 28.5122 29.3994C27.787 30.1344 26.9163 30.5012 25.9 30.5H3.7Z" fill="#147AA6"/>
</svg>
